<svg width="230" height="230" viewBox="0 0 230 230" fill="none" xmlns="http://www.w3.org/2000/svg">
<g clip-path="url(#clip0_80_1969)">
<path d="M134.891 97.3289L132.423 104.626L129.482 113.266L127.595 118.784L116.014 152.873C116.014 152.873 115.906 152.873 115.724 152.945C115.143 153.054 113.8 153.49 111.948 154.688C111.948 154.688 87.2262 213.463 82.1801 224.498C81.8171 225.261 81.4905 225.951 81.1999 226.531C77.134 234.409 77.4242 226.822 78.1502 223.809C78.1502 223.736 78.1865 223.663 78.2229 223.554C79.3118 218.545 89.1502 167.067 93.0705 149.679C93.3248 148.626 93.5426 147.718 93.7241 146.919C96.7011 134.866 100.477 123.976 103.199 118.966C103.635 118.131 104.035 117.477 104.398 116.97C105.523 115.517 110.206 109.164 115.288 102.267C119.681 96.2404 124.4 89.7789 127.232 85.9304C128.83 83.7158 129.809 82.3726 129.809 82.3726L134.891 97.3289Z" fill="#B9B9B8"/>
<path d="M195.336 19.6769C192.214 11.6179 185.825 5.19187 177.729 2.07025C174.353 0.763475 170.686 0.0370877 166.838 0.00115018C149.812 -0.144397 135.872 13.5419 135.763 30.5678C135.727 36.4126 137.288 41.8944 140.083 46.577C144.984 54.818 153.624 60.554 163.68 61.4978C164.587 61.607 165.459 61.6434 166.366 61.6434C183.393 61.788 197.296 48.0662 197.406 31.0399C197.442 27.01 196.716 23.1984 195.336 19.6769ZM166.439 52.2404C154.604 52.1312 145.093 42.4752 145.165 30.6401C145.274 18.8418 154.931 9.29414 166.766 9.40285C178.564 9.47562 188.112 19.1684 188.003 30.9671C187.894 42.8018 178.237 52.3131 166.439 52.2404Z" fill="#A55623"/>
<path d="M168.363 59.7917C167.31 60.1183 165.604 60.6991 163.68 61.4978C159.577 63.2767 154.459 66.1446 152.135 70.1381C147.634 77.9433 140.083 91.2662 133.657 103.79C133.403 104.299 132.931 104.553 132.423 104.626C131.733 104.698 131.007 104.336 130.826 103.537L126.796 87.7084C126.723 87.4178 126.76 87.128 126.868 86.8374C126.978 86.5831 127.086 86.2565 127.231 85.9299C129.373 80.1575 135.399 64.4389 137.069 59.2109C138.195 55.5807 139.828 50.9699 140.083 46.577C140.155 45.5609 140.155 44.5807 140.046 43.6005C139.901 42.4029 141.571 41.8216 142.515 42.5844C151.191 49.8451 161.792 54.818 166.003 57.4679C167.092 58.1579 169.561 59.4283 168.363 59.7917Z" fill="#A55623"/>
<path d="M150.247 223.99C144.984 212.99 119.39 154.651 119.39 154.651C117.648 153.562 116.377 153.126 115.724 152.945C115.433 152.872 115.288 152.872 115.288 152.872L108.608 134.14L103.199 118.965L98.1534 104.879L95.5757 97.655L100.44 82.5896C100.44 82.5896 101.456 83.9687 103.127 86.1469C105.994 89.9585 110.787 96.3114 115.288 102.265C120.189 108.8 124.763 114.862 126.143 116.605C126.215 116.678 126.288 116.75 126.324 116.823C126.724 117.295 127.123 117.948 127.595 118.783C130.354 123.756 134.311 134.539 137.469 146.591C141.136 160.568 153.37 220.032 154.241 223.226C155.076 226.422 155.475 234.954 150.247 223.99Z" fill="#E3E2E2"/>
<path d="M92.5984 23.5977C89.0405 10.202 76.6614 0.472385 62.1404 0.799416C45.1141 1.19832 31.6093 15.3209 32.0086 32.3103C32.2265 41.0593 36.0386 48.9009 42.0644 54.3827C47.6913 59.5375 55.2786 62.6236 63.5555 62.4417C64.4629 62.4053 65.3344 62.3689 66.2059 62.2602C76.2616 61.1708 84.7927 55.2537 89.585 46.9405C92.3077 42.221 93.796 36.7392 93.6509 30.8944C93.5786 28.3895 93.252 25.9211 92.5984 23.5977ZM41.4476 32.092C41.157 20.2937 50.5596 10.4918 62.3583 10.2016C68.929 10.056 74.9189 12.9243 78.9488 17.4987C82.1432 21.1288 84.14 25.8842 84.2492 31.1122C84.5398 42.9105 75.1372 52.7484 63.3385 53.0391C57.7844 53.1482 52.6291 51.1514 48.7447 47.7028C44.3882 43.8907 41.5927 38.3366 41.4476 32.092Z" fill="#A55623"/>
<path d="M103.489 87.8903L99.714 103.754C99.5325 104.553 98.843 104.952 98.153 104.88C97.6808 104.843 97.1728 104.59 96.9185 104.081C90.2755 91.6656 82.5426 78.4509 77.8959 70.719C75.5002 66.7254 70.345 63.9663 66.2063 62.2602C64.2823 61.4614 62.6121 60.917 61.5232 60.6268C60.2892 60.2634 62.7577 58.9571 63.8102 58.2671C68.0216 55.5443 78.5491 50.4255 87.0806 43.0197C88.0244 42.221 89.6942 42.8022 89.5855 43.9999C89.5127 44.9801 89.5127 45.9603 89.5855 46.9405C89.912 51.3329 91.6186 55.9437 92.8162 59.5374C94.5224 64.8014 100.876 80.4845 103.126 86.1478C103.235 86.4744 103.344 86.7646 103.453 87.0189C103.562 87.3095 103.562 87.5997 103.489 87.8903Z" fill="#A55623"/>
<path d="M115.431 131.321C119.291 131.321 122.42 128.192 122.42 124.332C122.42 120.472 119.291 117.343 115.431 117.343C111.571 117.343 108.442 120.472 108.442 124.332C108.442 128.192 111.571 131.321 115.431 131.321Z" fill="#9F9E9F"/>
<path opacity="0.1" d="M197.329 32.3741L168.134 61.5688C183.895 60.8047 196.549 48.1821 197.329 32.3741Z" fill="#040000"/>
<path opacity="0.1" d="M132.423 104.626C132.931 104.553 133.403 104.299 133.657 103.79C136.517 98.2166 139.591 92.5079 142.528 87.1743L98.1449 131.558C96.622 136.141 95.0893 141.391 93.7237 146.919C93.5422 147.717 93.3243 148.625 93.0701 149.678C89.1497 167.067 79.3114 218.544 78.2225 223.554C78.1861 223.663 78.1497 223.735 78.1497 223.808C77.4238 226.821 77.1331 234.408 81.1995 226.531C81.4896 225.95 81.8167 225.26 82.1796 224.497C87.2257 213.461 111.948 154.687 111.948 154.687C113.8 153.489 115.143 153.054 115.723 152.944C116.377 153.126 117.647 153.562 119.39 154.651C119.39 154.651 144.984 212.99 150.247 223.99C155.475 234.953 155.075 226.422 154.241 223.227C153.37 220.032 141.135 160.569 137.469 146.592C134.31 134.539 130.353 123.757 127.594 118.784L129.481 113.266L132.423 104.626Z" fill="#040000"/>
</g>
<defs>
<clipPath id="clip0_80_1969">
<rect width="230" height="230" fill="white"/>
</clipPath>
</defs>
</svg>
